<svg xmlns="http://www.w3.org/2000/svg" width="980" height="560" viewBox="0 0 980 560">
<style>
text{font-family:Arial, 'Microsoft YaHei', sans-serif;fill:#0f172a;}
.title{font-size:24px;font-weight:700;}
.subtitle{font-size:13px;fill:#64748b;}
.axis{font-size:12px;fill:#64748b;}
.label{font-size:13px;fill:#0f172a;}
.value{font-size:12px;fill:#0f172a;font-weight:600;}
.small{font-size:11px;fill:#64748b;}
</style>
<rect width="100%" height="100%" fill="white"/>

<text x="78" y="38" class="title">City-level gains over MF baseline</text>
<text x="78" y="61" class="subtitle">Robustness validation final: q25 group fusion, RRF K=30, protect_top=5</text>
<line x1="78" y1="468.0" x2="946" y2="468.0" stroke="#dbe4ef" stroke-width="1"/>
<text x="68" y="472.0" text-anchor="end" class="axis">-0.003</text>
<line x1="78" y1="371.5" x2="946" y2="371.5" stroke="#dbe4ef" stroke-width="1"/>
<text x="68" y="375.5" text-anchor="end" class="axis">0.005</text>
<line x1="78" y1="275.0" x2="946" y2="275.0" stroke="#dbe4ef" stroke-width="1"/>
<text x="68" y="279.0" text-anchor="end" class="axis">0.014</text>
<line x1="78" y1="178.5" x2="946" y2="178.5" stroke="#dbe4ef" stroke-width="1"/>
<text x="68" y="182.5" text-anchor="end" class="axis">0.022</text>
<line x1="78" y1="82.0" x2="946" y2="82.0" stroke="#dbe4ef" stroke-width="1"/>
<text x="68" y="86.0" text-anchor="end" class="axis">0.030</text>
<text x="186.5" y="503" text-anchor="middle" class="axis">Chicago</text>
<rect x="155.0" y="291.0" width="28.0" height="177.0" rx="3" fill="#16a34a"/>
<text x="169.0" y="285.0" text-anchor="middle" class="value">0.0121</text>
<rect x="190.0" y="388.9" width="28.0" height="79.1" rx="3" fill="#f97316"/>
<text x="204.0" y="382.9" text-anchor="middle" class="value">0.0038</text>
<text x="403.5" y="503" text-anchor="middle" class="axis">NYC</text>
<rect x="372.0" y="390.0" width="28.0" height="78.0" rx="3" fill="#16a34a"/>
<text x="386.0" y="384.0" text-anchor="middle" class="value">0.0037</text>
<rect x="407.0" y="418.5" width="28.0" height="49.5" rx="3" fill="#f97316"/>
<text x="421.0" y="412.5" text-anchor="middle" class="value">0.0012</text>
<text x="620.5" y="503" text-anchor="middle" class="axis">Singapore</text>
<rect x="589.0" y="118.2" width="28.0" height="349.8" rx="3" fill="#16a34a"/>
<text x="603.0" y="112.2" text-anchor="middle" class="value">0.0269</text>
<rect x="624.0" y="329.5" width="28.0" height="138.5" rx="3" fill="#f97316"/>
<text x="638.0" y="323.5" text-anchor="middle" class="value">0.0088</text>
<text x="837.5" y="503" text-anchor="middle" class="axis">Tokyo</text>
<rect x="806.0" y="434.0" width="28.0" height="34.0" rx="3" fill="#16a34a"/>
<text x="820.0" y="428.0" text-anchor="middle" class="value">-0.0001</text>
<rect x="841.0" y="429.2" width="28.0" height="38.8" rx="3" fill="#f97316"/>
<text x="855.0" y="423.2" text-anchor="middle" class="value">0.0003</text>
<rect x="78" y="521" width="14" height="14" rx="2" fill="#16a34a"/>
<text x="98" y="532" class="label">Delta Recall@20</text>
<rect x="228" y="521" width="14" height="14" rx="2" fill="#f97316"/>
<text x="248" y="532" class="label">Delta nDCG@20</text>
</svg>