<svg xmlns="http://www.w3.org/2000/svg" width="980" height="560" viewBox="0 0 980 560">
<style>
text{font-family:Arial, 'Microsoft YaHei', sans-serif;fill:#0f172a;}
.title{font-size:24px;font-weight:700;}
.subtitle{font-size:13px;fill:#64748b;}
.axis{font-size:12px;fill:#64748b;}
.label{font-size:13px;fill:#0f172a;}
.value{font-size:12px;fill:#0f172a;font-weight:600;}
.small{font-size:11px;fill:#64748b;}
</style>
<rect width="100%" height="100%" fill="white"/>

<text x="78" y="38" class="title">Final comparison across methods</text>
<text x="78" y="61" class="subtitle">Average over Chicago, NYC, Singapore and Tokyo under the same split/evaluation setting</text>
<line x1="78" y1="468.0" x2="946" y2="468.0" stroke="#dbe4ef" stroke-width="1"/>
<text x="68" y="472.0" text-anchor="end" class="axis">0.120</text>
<line x1="78" y1="371.5" x2="946" y2="371.5" stroke="#dbe4ef" stroke-width="1"/>
<text x="68" y="375.5" text-anchor="end" class="axis">0.158</text>
<line x1="78" y1="275.0" x2="946" y2="275.0" stroke="#dbe4ef" stroke-width="1"/>
<text x="68" y="279.0" text-anchor="end" class="axis">0.195</text>
<line x1="78" y1="178.5" x2="946" y2="178.5" stroke="#dbe4ef" stroke-width="1"/>
<text x="68" y="182.5" text-anchor="end" class="axis">0.233</text>
<line x1="78" y1="82.0" x2="946" y2="82.0" stroke="#dbe4ef" stroke-width="1"/>
<text x="68" y="86.0" text-anchor="end" class="axis">0.270</text>
<text x="164.8" y="503" text-anchor="middle" class="axis">MF Base</text>
<rect x="133.3" y="152.0" width="28.0" height="316.0" rx="3" fill="#2563eb"/>
<text x="147.3" y="146.0" text-anchor="middle" class="value">0.2428</text>
<rect x="168.3" y="425.3" width="28.0" height="42.7" rx="3" fill="#f97316"/>
<text x="182.3" y="419.3" text-anchor="middle" class="value">0.1366</text>
<text x="338.4" y="503" text-anchor="middle" class="axis">Calibrated Term</text>
<rect x="306.9" y="145.3" width="28.0" height="322.7" rx="3" fill="#2563eb"/>
<text x="320.9" y="139.3" text-anchor="middle" class="value">0.2454</text>
<rect x="341.9" y="423.2" width="28.0" height="44.8" rx="3" fill="#f97316"/>
<text x="355.9" y="417.2" text-anchor="middle" class="value">0.1374</text>
<text x="512.0" y="503" text-anchor="middle" class="axis">City-Tail RRF</text>
<rect x="480.5" y="139.6" width="28.0" height="328.4" rx="3" fill="#2563eb"/>
<text x="494.5" y="133.6" text-anchor="middle" class="value">0.2476</text>
<rect x="515.5" y="419.9" width="28.0" height="48.1" rx="3" fill="#f97316"/>
<text x="529.5" y="413.9" text-anchor="middle" class="value">0.1387</text>
<text x="685.5999999999999" y="503" text-anchor="middle" class="axis">Quantile Group</text>
<rect x="654.1" y="125.2" width="28.0" height="342.8" rx="3" fill="#2563eb"/>
<text x="668.1" y="119.2" text-anchor="middle" class="value">0.2532</text>
<rect x="689.1" y="416.5" width="28.0" height="51.5" rx="3" fill="#f97316"/>
<text x="703.1" y="410.5" text-anchor="middle" class="value">0.1400</text>
<text x="859.1999999999999" y="503" text-anchor="middle" class="axis">Final</text>
<rect x="827.7" y="124.7" width="28.0" height="343.3" rx="3" fill="#2563eb"/>
<text x="841.7" y="118.7" text-anchor="middle" class="value">0.2534</text>
<rect x="862.7" y="416.3" width="28.0" height="51.7" rx="3" fill="#f97316"/>
<text x="876.7" y="410.3" text-anchor="middle" class="value">0.1401</text>
<rect x="78" y="521" width="14" height="14" rx="2" fill="#2563eb"/>
<text x="98" y="532" class="label">Recall@20</text>
<rect x="228" y="521" width="14" height="14" rx="2" fill="#f97316"/>
<text x="248" y="532" class="label">nDCG@20</text>
</svg>