<svg xmlns="http://www.w3.org/2000/svg" width="980" height="560" viewBox="0 0 980 560">
<style>
text{font-family:Arial, 'Microsoft YaHei', sans-serif;fill:#0f172a;}
.title{font-size:24px;font-weight:700;}
.subtitle{font-size:13px;fill:#64748b;}
.axis{font-size:12px;fill:#64748b;}
.label{font-size:13px;fill:#0f172a;}
.value{font-size:12px;fill:#0f172a;font-weight:600;}
.small{font-size:11px;fill:#64748b;}
</style>
<rect width="100%" height="100%" fill="white"/>

<text x="78" y="38" class="title">Popularity-group gains</text>
<text x="78" y="61" class="subtitle">The improvement mainly appears on tail and mid items, matching the long-tail motivation</text>
<line x1="78" y1="468.0" x2="946" y2="468.0" stroke="#dbe4ef" stroke-width="1"/>
<text x="68" y="472.0" text-anchor="end" class="axis">0.000</text>
<line x1="78" y1="371.5" x2="946" y2="371.5" stroke="#dbe4ef" stroke-width="1"/>
<text x="68" y="375.5" text-anchor="end" class="axis">0.005</text>
<line x1="78" y1="275.0" x2="946" y2="275.0" stroke="#dbe4ef" stroke-width="1"/>
<text x="68" y="279.0" text-anchor="end" class="axis">0.009</text>
<line x1="78" y1="178.5" x2="946" y2="178.5" stroke="#dbe4ef" stroke-width="1"/>
<text x="68" y="182.5" text-anchor="end" class="axis">0.014</text>
<line x1="78" y1="82.0" x2="946" y2="82.0" stroke="#dbe4ef" stroke-width="1"/>
<text x="68" y="86.0" text-anchor="end" class="axis">0.019</text>
<text x="222.66666666666666" y="503" text-anchor="middle" class="axis">Tail</text>
<rect x="191.2" y="123.2" width="28.0" height="344.8" rx="3" fill="#16a34a"/>
<text x="205.2" y="117.2" text-anchor="middle" class="value">0.0170</text>
<rect x="226.2" y="353.0" width="28.0" height="115.0" rx="3" fill="#f97316"/>
<text x="240.2" y="347.0" text-anchor="middle" class="value">0.0057</text>
<text x="512.0" y="503" text-anchor="middle" class="axis">Mid</text>
<rect x="480.5" y="245.7" width="28.0" height="222.3" rx="3" fill="#16a34a"/>
<text x="494.5" y="239.7" text-anchor="middle" class="value">0.0109</text>
<rect x="515.5" y="402.0" width="28.0" height="66.0" rx="3" fill="#f97316"/>
<text x="529.5" y="396.0" text-anchor="middle" class="value">0.0032</text>
<text x="801.3333333333333" y="503" text-anchor="middle" class="axis">Head</text>
<rect x="769.8" y="421.5" width="28.0" height="46.5" rx="3" fill="#16a34a"/>
<text x="783.8" y="415.5" text-anchor="middle" class="value">0.0023</text>
<rect x="804.8" y="446.3" width="28.0" height="21.7" rx="3" fill="#f97316"/>
<text x="818.8" y="440.3" text-anchor="middle" class="value">0.0011</text>
<rect x="78" y="521" width="14" height="14" rx="2" fill="#16a34a"/>
<text x="98" y="532" class="label">Delta Recall@20</text>
<rect x="228" y="521" width="14" height="14" rx="2" fill="#f97316"/>
<text x="248" y="532" class="label">Delta nDCG@20</text>
</svg>